<?xml version="1.0" encoding="UTF-8" standalone="no"?>
<svg width="116px" height="23px" viewBox="0 0 116 23" version="1.1" xmlns="http://www.w3.org/2000/svg" xmlns:xlink="http://www.w3.org/1999/xlink">
    <!-- Generator: Sketch 40.3 (33839) - http://www.bohemiancoding.com/sketch -->
    <title>icon_piciAdmin</title>
    <desc>Created with Sketch.</desc>
    <defs></defs>
    <g id="Styleguide" stroke="none" stroke-width="1" fill="none" fill-rule="evenodd">
        <g id="Styleguide-03-IconSet" transform="translate(-923.000000, -1036.000000)" fill="#000000">
            <g id="icon_piciAdmin" transform="translate(923.000000, 1036.000000)">
                <path d="M7.43577083,12.9576875 L3.7943125,12.9576875 L3.7943125,3.01254167 L7.46922917,3.01254167 C10.6761875,3.01254167 12.4137292,4.88322917 12.4137292,7.96872917 C12.4137292,10.9556875 10.509125,12.9576875 7.43577083,12.9576875 L7.43577083,12.9576875 Z M7.46922917,1 L0,1 L0.6875,3.01254167 L0.6875,22.2325208 L3.7943125,22.2325208 L3.7943125,14.941125 L7.50245833,14.941125 C12.0126875,14.941125 15.6541458,12.5965208 15.6541458,7.9705625 C15.6541458,2.99627083 12.2798958,1 7.46922917,1 L7.46922917,1 Z" id="Fill-1"></path>
                <polyline id="Fill-4" points="18 1 18.6875 3.0123125 18.6875 22.2325208 21.7943125 22.2325208 21.7943125 1 18 1"></polyline>
                <polyline id="Fill-5" points="47 1 47.6875 3.0123125 47.6875 22.2325208 50.7943125 22.2325208 50.7943125 1 47 1"></polyline>
                <path d="M43.8605625,15.5132083 C42.9438958,17.2748125 40.9673333,19.7401875 37.0286458,19.7401875 C32.2065208,19.7401875 29.4230625,16.0735208 29.4230625,10.9665417 C29.4230625,5.85933333 32.2065208,2.19266667 37.0286458,2.19266667 C40.9673333,2.19266667 42.9010417,4.61335417 43.8177083,6.37495833 L45.2928542,4.91425 C45.2928542,4.91425 43.1015625,0 36.808875,0 C30.3158958,0 26,5.00477083 26,10.9631042 C26,16.9214375 30.3158958,21.9264375 36.808875,21.9264375 C43.1015625,21.9264375 45.2928542,16.5203958 45.2928542,16.5203958 L43.8605625,15.5132083" id="Fill-7"></path>
                <path d="M64.1003333,6.24447917 L62.5523125,1.90016667 L62.5401667,1.90016667 L60.9561667,6.24447917 L64.1003333,6.24447917 L64.1003333,6.24447917 Z M62.2039792,1 L62.92425,1 L66.0684167,9.58091667 L65.2761875,9.58091667 L64.3162083,6.88064583 L60.7398333,6.88064583 L59.7560208,9.58091667 L59,9.58091667 L62.2039792,1 L62.2039792,1 Z" id="Fill-9"></path>
                <path d="M76.0843542,8.88470833 C77.536125,8.88470833 78.3521875,7.93664583 78.3521875,6.7365 L78.3521875,3.82035417 C78.3521875,2.58422917 77.5604167,1.67214583 76.0600625,1.67214583 L73.7557917,1.67214583 L73.7557917,8.88470833 L76.0843542,8.88470833 L76.0843542,8.88470833 Z M73,1 L76.13225,1 C77.8603958,1 79.1086667,1.9961875 79.1086667,3.79629167 L79.1086667,6.68860417 C79.1086667,8.48870833 77.8125,9.55685417 76.13225,9.55685417 L73,9.55685417 L73,1 L73,1 Z" id="Fill-10"></path>
                <polyline id="Fill-11" points="86 1 86.9359167 1 89.779875 6.22041667 89.7920208 6.22041667 92.5763958 1 93.5366042 1 93.5366042 9.55685417 92.7922708 9.55685417 92.7922708 2.30808333 92.7684375 2.30808333 90.0681667 7.25258333 89.4679792 7.25258333 86.7679375 2.32022917 86.7317292 2.32022917 86.7317292 9.55685417 86 9.55685417 86 1"></polyline>
                <polygon id="Fill-12" points="101 9.55685417 101.756021 9.55685417 101.756021 1 101 1"></polygon>
                <polyline id="Fill-13" points="109 1 109.779625 1 114.424375 8.236625 114.447979 8.236625 114.447979 1 115.16825 1 115.16825 9.55685417 114.424375 9.55685417 109.731729 2.21229167 109.707667 2.21229167 109.707667 9.55685417 109 9.55685417 109 1"></polyline>
                <path d="M59,19.0483958 L59,15.9881042 C59,14.2358958 60.332375,13 62.1922917,13 C63.9204375,13 65.1808542,14.0200208 65.1808542,15.4841667 L65.1808542,15.9640417 L64.4484375,15.9640417 L64.4484375,15.6040208 C64.4484375,14.4400833 63.5725625,13.6838333 62.1565417,13.6838333 C60.7643542,13.6838333 59.75625,14.5961458 59.75625,16.00025 L59.75625,18.9283125 C59.75625,20.3205 60.7524375,21.2085208 62.2163542,21.2085208 C63.6204583,21.2085208 64.4484375,20.4405833 64.4484375,19.2761875 L64.4484375,19.0724583 L65.1808542,19.0724583 L65.1808542,19.4084167 C65.1808542,20.9326042 63.9445,21.8806667 62.2163542,21.8806667 C60.4041042,21.8806667 59,20.9085417 59,19.0483958" id="Fill-14"></path>
                <polyline id="Fill-15" points="70 13 75.3402708 13 75.3402708 13.6721458 70.7560208 13.6721458 70.7560208 16.7924792 74.5480417 16.7924792 74.5480417 17.4524792 70.7560208 17.4524792 70.7560208 20.8849375 75.3643333 20.8849375 75.3643333 21.5568542 70 21.5568542 70 13"></polyline>
                <polyline id="Fill-16" points="79 13 79.7798542 13 84.424375 20.236625 84.4482083 20.236625 84.4482083 13 85.16825 13 85.16825 21.5568542 84.424375 21.5568542 79.7319583 14.2122917 79.7076667 14.2122917 79.7076667 21.5568542 79 21.5568542 79 13"></polyline>
                <polyline id="Fill-17" points="91.8923125 13.6602292 89 13.6602292 89 13 95.5285 13 95.5285 13.6602292 92.6483333 13.6602292 92.6483333 21.5568542 91.8923125 21.5568542 91.8923125 13.6602292"></polyline>
                <polyline id="Fill-18" points="100 13 105.340271 13 105.340271 13.6721458 100.756021 13.6721458 100.756021 16.7924792 104.548042 16.7924792 104.548042 17.4524792 100.756021 17.4524792 100.756021 20.8849375 105.364563 20.8849375 105.364563 21.5568542 100 21.5568542 100 13"></polyline>
                <path d="M111.688125,17.3924375 C113.116063,17.3924375 113.920208,16.7924792 113.920208,15.4843958 C113.920208,14.2482708 113.056021,13.6480833 111.675979,13.6480833 L109.756021,13.6480833 L109.756021,17.3924375 L111.688125,17.3924375 L111.688125,17.3924375 Z M109,13 L111.915917,13 C113.559958,13 114.676229,13.924 114.676229,15.4963125 C114.676229,16.7205208 113.968104,17.7524583 112.456292,17.9685625 L115.060313,21.5568542 L114.196125,21.5568542 L111.651917,18.0286042 L109.756021,18.0286042 L109.756021,21.5568542 L109,21.5568542 L109,13 L109,13 Z" id="Fill-19"></path>
            </g>
        </g>
    </g>
</svg>