<?xml version="1.0" encoding="UTF-8" standalone="no"?>
<svg width="21px" height="19px" viewBox="0 0 21 19" version="1.1" xmlns="http://www.w3.org/2000/svg" xmlns:xlink="http://www.w3.org/1999/xlink">
    <!-- Generator: Sketch 3.6.1 (26313) - http://www.bohemiancoding.com/sketch -->
    <title>icon-agreement</title>
    <desc>Created with Sketch.</desc>
    <defs></defs>
    <g id="Page-1" stroke="none" stroke-width="1" fill="none" fill-rule="evenodd">
        <g id="Styleguide---Icons" transform="translate(-240.000000, -392.000000)" fill="#0277BD">
            <g id="icon-agreement" transform="translate(240.000000, 394.000000)">
                <path d="M1,2.00010618 L1,2.00010618 L1,14.9998938 C1,15.5560156 1.44352704,16 1.99430622,16 L9.625,16 L8.92821432,16.2827206 L13.3032143,12.0327206 L13,12.75 L13,1.9921875 C13,1.44841934 12.5492259,1 11.9941413,1 L2.00585866,1 C1.44912244,1 1,1.44798768 1,2.00010618 L1,2.00010618 Z M0,2.00010618 C0,0.895478039 0.897060126,0 2.00585866,0 L11.9941413,0 C13.1019465,0 14,0.896555241 14,1.9921875 L14,12.75 L9.625,17 L1.99430622,17 C0.892881309,17 0,16.1099416 0,14.9998938 L0,2.00010618 L0,2.00010618 Z" id="Rectangle-194"></path>
                <path d="M9,16.8535354 L9,12.5069591 C9,12.2262221 9.22472627,12 9.50032323,12 L13.7525253,12 L13.7525253,11 L9.50032323,11 C8.67095096,11 8,11.675417 8,12.5069591 L8,16.8535354 L9,16.8535354 L9,16.8535354 Z" id="Path-331"></path>
                <rect id="Rectangle-370" x="3" y="3" width="7.97290039" height="1"></rect>
                <rect id="Rectangle-370-Copy" x="3" y="6" width="4.78374023" height="1"></rect>
                <path d="M9,10 L10,10 L19.0005044,0.97572657 L18,0 L9,9 L9,10 Z" id="Path-505" stroke="#FFFFFF"></path>
            </g>
        </g>
    </g>
</svg>