<?xml version="1.0" encoding="UTF-8" standalone="no"?>
<svg width="48px" height="52px" viewBox="0 0 48 52" version="1.1" xmlns="http://www.w3.org/2000/svg" xmlns:xlink="http://www.w3.org/1999/xlink">
    <!-- Generator: Sketch 40.2 (33826) - http://www.bohemiancoding.com/sketch -->
    <title>pici-ic-atom</title>
    <desc>Created with Sketch.</desc>
    <defs></defs>
    <g id="PICI-1.0.2" stroke="none" stroke-width="1" fill="none" fill-rule="evenodd">
        <g id="pici-icons" transform="translate(-103.000000, -5.000000)" fill="#222A38">
            <path d="M127,6.85351562 C125.561191,6.85351562 124.211269,7.66177577 122.950195,9.27832031 C121.689121,10.8948649 120.626957,13.1080589 119.763672,15.9179688 C122.031912,16.5273468 124.435534,17.3990829 126.974609,18.5332031 C129.412122,17.4498644 131.83267,16.5781283 134.236328,15.9179688 C133.373043,13.1080589 132.310879,10.8948649 131.049805,9.27832031 C129.788731,7.66177577 128.438809,6.85351562 127,6.85351562 L127,6.85351562 Z M143.681641,29.7304688 C145.695974,27.5807184 147.083981,25.5537205 147.845703,23.6494141 C148.607426,21.7451077 148.624353,20.1666729 147.896484,18.9140625 C146.982417,17.3059815 144.976578,16.5019531 141.878906,16.5019531 C140.253898,16.5019531 138.434255,16.7304665 136.419922,17.1875 C137.0293,19.4388133 137.49479,21.9609235 137.816406,24.7539062 C139.949229,26.3281329 141.904288,27.9869704 143.681641,29.7304688 L143.681641,29.7304688 Z M112.121094,16.5019531 C109.023422,16.5019531 107.017583,17.3059815 106.103516,18.9140625 C105.375647,20.1666729 105.396806,21.7408759 106.166992,23.6367188 C106.937178,25.5325616 108.320954,27.5637913 110.318359,29.7304688 C112.028003,28.0208248 113.991525,26.3619872 116.208984,24.7539062 C116.496746,21.9778507 116.953773,19.4557405 117.580078,17.1875 C115.565745,16.7304665 113.746102,16.5019531 112.121094,16.5019531 L112.121094,16.5019531 Z M119.28125,17.6191406 C118.841144,19.3287846 118.485678,21.2415259 118.214844,23.3574219 C120.195322,22.0201756 122.387358,20.7506571 124.791016,19.5488281 C122.79361,18.7193969 120.95704,18.0761742 119.28125,17.6191406 L119.28125,17.6191406 Z M135.810547,23.3574219 C135.522785,21.2415259 135.158856,19.3287846 134.71875,17.6191406 C133.04296,18.0761742 131.20639,18.7193969 129.208984,19.5488281 C131.477225,20.6829484 133.677724,21.9524669 135.810547,23.3574219 L135.810547,23.3574219 Z M136.039062,36.2558594 C136.326824,32.9550616 136.335288,29.4596539 136.064453,25.7695312 C133.254543,23.8229069 130.224626,22.0794348 126.974609,20.5390625 C123.775375,22.0286533 120.770847,23.763662 117.960938,25.7441406 C117.639321,29.3665546 117.630858,32.8619623 117.935547,36.2304688 C120.745457,38.1770931 123.775374,39.9205652 127.025391,41.4609375 C130.224625,39.903638 133.229153,38.1686294 136.039062,36.2558594 L136.039062,36.2558594 Z M115.980469,34.8085938 C115.828124,32.2695186 115.828124,29.7304814 115.980469,27.1914062 C114.440096,28.3593808 112.967455,29.6288994 111.5625,31 C112.848965,32.2695376 114.321606,33.5390562 115.980469,34.8085938 L115.980469,34.8085938 Z M138.019531,27.1914062 C138.171876,29.7304814 138.171876,32.2695186 138.019531,34.8085938 C139.678394,33.5390562 141.151035,32.2695376 142.4375,31 C141.032545,29.6288994 139.559904,28.3593808 138.019531,27.1914062 L138.019531,27.1914062 Z M127,29.1464844 C127.507815,29.1464844 127.943683,29.3284487 128.307617,29.6923828 C128.671551,30.0563169 128.853516,30.492185 128.853516,31 C128.853516,31.507815 128.671551,31.9436831 128.307617,32.3076172 C127.943683,32.6715513 127.507815,32.8535156 127,32.8535156 C126.492185,32.8535156 126.056317,32.6715513 125.692383,32.3076172 C125.328449,31.9436831 125.146484,31.507815 125.146484,31 C125.146484,30.492185 125.328449,30.0563169 125.692383,29.6923828 C126.056317,29.3284487 126.492185,29.1464844 127,29.1464844 L127,29.1464844 Z M110.318359,32.2441406 C108.304026,34.4108181 106.916019,36.4420478 106.154297,38.3378906 C105.392574,40.2337334 105.375647,41.8079364 106.103516,43.0605469 C107.03451,44.685555 109.057276,45.4980469 112.171875,45.4980469 C113.796883,45.4980469 115.599599,45.2695335 117.580078,44.8125 C116.9707,42.5611867 116.50521,40.0390765 116.183594,37.2460938 C113.999989,35.6380128 112.044931,33.9707118 110.318359,32.2441406 L110.318359,32.2441406 Z M141.828125,45.4980469 C144.942724,45.4980469 146.96549,44.685555 147.896484,43.0605469 C148.624353,41.8079364 148.603194,40.2337334 147.833008,38.3378906 C147.062822,36.4420478 145.679046,34.4192816 143.681641,32.2695312 C141.870434,34.0638111 139.906912,35.7226486 137.791016,37.2460938 C137.503254,39.988295 137.046227,42.5104052 136.419922,44.8125 C138.400401,45.2695335 140.203117,45.4980469 141.828125,45.4980469 L141.828125,45.4980469 Z M118.189453,38.6171875 C118.477215,40.7669378 118.841144,42.6881426 119.28125,44.3808594 C120.95704,43.9238258 122.79361,43.2806031 124.791016,42.4511719 C122.302722,41.1985614 120.102223,39.9205794 118.189453,38.6171875 L118.189453,38.6171875 Z M134.71875,44.3808594 C135.158856,42.6712154 135.514322,40.7584741 135.785156,38.6425781 C133.940095,39.8782614 131.74806,41.1393165 129.208984,42.4257812 C131.138682,43.2552125 132.975252,43.9068987 134.71875,44.3808594 L134.71875,44.3808594 Z M127,55.1464844 C128.438809,55.1464844 129.788731,54.3382242 131.049805,52.7216797 C132.310879,51.1051351 133.373043,48.8834777 134.236328,46.0566406 C132.018869,45.4641897 129.615247,44.6009171 127.025391,43.4667969 C124.537097,44.5670628 122.116548,45.4303354 119.763672,46.0566406 C120.626957,48.8834777 121.689121,51.1051351 122.950195,52.7216797 C124.211269,54.3382242 125.561191,55.1464844 127,55.1464844 L127,55.1464844 Z M149.521484,18 C150.38477,19.6419353 150.401697,21.5885304 149.572266,23.8398438 C148.742834,26.0911571 147.177095,28.477852 144.875,31 C147.177095,33.522148 148.742834,35.9088429 149.572266,38.1601562 C150.401697,40.4114696 150.38477,42.3580647 149.521484,44 C148.302728,46.115896 145.721374,47.1738281 141.777344,47.1738281 C139.983064,47.1738281 138.036469,46.9453148 135.9375,46.4882812 C134.904943,49.7382975 133.605802,52.302725 132.040039,54.1816406 C130.474276,56.0605563 128.79428,57 127,57 C125.20572,57 123.525724,56.0605563 121.959961,54.1816406 C120.394198,52.302725 119.095057,49.7382975 118.0625,46.4882812 C115.946604,46.9453148 114.000009,47.1738281 112.222656,47.1738281 C108.278626,47.1738281 105.697272,46.115896 104.478516,44 C103.61523,42.3580647 103.598303,40.4114696 104.427734,38.1601562 C105.257166,35.9088429 106.822905,33.522148 109.125,31 C106.822905,28.477852 105.257166,26.0911571 104.427734,23.8398438 C103.598303,21.5885304 103.61523,19.6419353 104.478516,18 C105.697272,15.884104 108.278626,14.8261719 112.222656,14.8261719 C114.016936,14.8261719 115.963531,15.0546852 118.0625,15.5117188 C119.095057,12.2617025 120.394198,9.69727502 121.959961,7.81835938 C123.525724,5.93944373 125.20572,5 127,5 C128.79428,5 130.474276,5.93944373 132.040039,7.81835938 C133.605802,9.69727502 134.904943,12.2617025 135.9375,15.5117188 C138.053396,15.0546852 139.999991,14.8261719 141.777344,14.8261719 C145.721374,14.8261719 148.302728,15.884104 149.521484,18 L149.521484,18 Z" id="pici-ic-atom"></path>
        </g>
    </g>
</svg>