<?xml version="1.0" encoding="UTF-8" standalone="no"?>
<svg width="32px" height="40px" viewBox="0 0 32 40" version="1.1" xmlns="http://www.w3.org/2000/svg" xmlns:xlink="http://www.w3.org/1999/xlink">
    <!-- Generator: Sketch 3.6.1 (26313) - http://www.bohemiancoding.com/sketch -->
    <title>icon-cv</title>
    <desc>Created with Sketch.</desc>
    <defs></defs>
    <g id="Page-1" stroke="none" stroke-width="1" fill="none" fill-rule="evenodd">
        <g id="Styleguide---Icons" transform="translate(-835.000000, -142.000000)" fill="#0277BD">
            <g id="icon-cv" transform="translate(835.000000, 142.000000)">
                <path d="M2,3.0065012 L2,3.0065012 L2,36.9934988 C2,37.5523331 2.44716074,38 3.00051675,38 L23.409446,38 L21.9773073,38.6039417 L30.5678613,29.7913694 L30,31.1874277 L30,2.99038167 C30,2.44495143 29.5543259,2 29.0038998,2 L2.99610022,2 C2.44359068,2 2,2.44586457 2,3.0065012 L2,3.0065012 Z M0,3.0065012 C0,1.34605644 1.33425951,0 2.99610022,0 L29.0038998,0 C30.6586002,0 32,1.34008478 32,2.99038167 L32,31.1874277 L23.409446,40 L3.00051675,40 C1.34337711,40 0,38.6576906 0,36.9934988 L0,3.0065012 L0,3.0065012 Z" id="Rectangle-194"></path>
                <path d="M22.5454545,38.8181818 L22.5454545,32.8150515 C22.5454545,31.7144499 23.4428891,30.8181818 24.5423242,30.8181818 L30.5454545,30.8181818 L30.5454545,28.8181818 L24.5423242,28.8181818 C22.3389015,28.8181818 20.5454545,30.6092976 20.5454545,32.8150515 L20.5454545,38.8181818 L22.5454545,38.8181818 L22.5454545,38.8181818 Z" id="Path-331"></path>
                <rect id="Rectangle-195" x="7" y="21" width="18" height="2"></rect>
                <rect id="Rectangle-195-Copy" x="7" y="25" width="18" height="2"></rect>
                <rect id="Rectangle-195-Copy-2" x="7" y="29" width="9" height="2"></rect>
                <path d="M19,9 C19,10.66 17.66,12 16,12 C14.34,12 13,10.66 13,9 C13,7.34 14.34,6 16,6 C17.66,6 19,7.34 19,9 L19,9 Z" id="Path"></path>
                <path d="M10,16 C10,14 14,12.9 16,12.9 C18,12.9 22,14 22,16 L22,17 L10,17 L10,16 L10,16 Z" id="Path"></path>
            </g>
        </g>
    </g>
</svg>