<?xml version="1.0" encoding="UTF-8" standalone="no"?>
<svg width="16px" height="14px" viewBox="0 0 16 14" version="1.1" xmlns="http://www.w3.org/2000/svg" xmlns:xlink="http://www.w3.org/1999/xlink">
    <!-- Generator: Sketch 40.3 (33839) - http://www.bohemiancoding.com/sketch -->
    <title>icon_download</title>
    <desc>Created with Sketch.</desc>
    <defs></defs>
    <g id="Styleguide" stroke="none" stroke-width="1" fill="none" fill-rule="evenodd">
        <g id="Styleguide-03-IconSet" transform="translate(-712.000000, -841.000000)" fill="#000000">
            <path d="M723.882812,847.515625 C723.960938,847.59375 724,847.688802 724,847.800781 C724,847.912761 723.960938,848.007812 723.882812,848.085938 L719.882812,852.085938 C719.846354,852.122396 719.803386,852.151042 719.753906,852.171875 C719.704427,852.192708 719.653646,852.203125 719.601562,852.203125 C719.549479,852.203125 719.498698,852.192708 719.449219,852.171875 C719.399739,852.151042 719.356771,852.122396 719.320312,852.085938 L715.320312,848.085938 C715.242187,848.007812 715.203125,847.912761 715.203125,847.800781 C715.203125,847.688802 715.242187,847.59375 715.320312,847.515625 C715.398438,847.4375 715.492187,847.398438 715.601562,847.398438 C715.710938,847.398438 715.804687,847.4375 715.882812,847.515625 L719.203125,850.835938 L719.203125,841.796875 C719.203125,841.687499 719.242187,841.59375 719.320312,841.515625 C719.398438,841.4375 719.492187,841.398438 719.601562,841.398438 C719.710938,841.398438 719.804687,841.4375 719.882812,841.515625 C719.960938,841.59375 720,841.687499 720,841.796875 L720,850.835938 L723.320312,847.515625 C723.398438,847.4375 723.492187,847.398438 723.601562,847.398438 C723.710938,847.398438 723.804687,847.4375 723.882812,847.515625 L723.882812,847.515625 Z M726,855 L713.203125,855 C712.86979,855 712.585939,854.882814 712.351562,854.648438 C712.117186,854.414061 712,854.13021 712,853.796875 L712,852.203125 C712,852.088541 712.039062,851.992188 712.117188,851.914062 C712.195313,851.835937 712.289062,851.796875 712.398438,851.796875 C712.507813,851.796875 712.601562,851.835937 712.679688,851.914062 C712.757813,851.992188 712.796875,852.088541 712.796875,852.203125 L712.796875,853.796875 C712.796875,853.911459 712.835937,854.007812 712.914062,854.085938 C712.992188,854.164063 713.088541,854.203125 713.203125,854.203125 L726,854.203125 C726.109376,854.203125 726.203125,854.164063 726.28125,854.085938 C726.359375,854.007812 726.398438,853.911459 726.398438,853.796875 L726.398438,852.203125 C726.398438,852.088541 726.4375,851.992188 726.515625,851.914062 C726.59375,851.835937 726.687499,851.796875 726.796875,851.796875 C726.911459,851.796875 727.007812,851.835937 727.085938,851.914062 C727.164063,851.992188 727.203125,852.088541 727.203125,852.203125 L727.203125,853.796875 C727.203125,854.13021 727.085939,854.414061 726.851562,854.648438 C726.617186,854.882814 726.333335,855 726,855 L726,855 Z" id="icon_download"></path>
        </g>
    </g>
</svg>