<?xml version="1.0" encoding="UTF-8" standalone="no"?>
<svg width="36px" height="44px" viewBox="0 0 36 44" version="1.1" xmlns="http://www.w3.org/2000/svg" xmlns:xlink="http://www.w3.org/1999/xlink">
    <!-- Generator: Sketch 3.6.1 (26313) - http://www.bohemiancoding.com/sketch -->
    <title>Icon empty</title>
    <desc>Created with Sketch.</desc>
    <defs></defs>
    <g id="Page-1" stroke="none" stroke-width="1" fill="none" fill-rule="evenodd">
        <g id="Styleguide---Icons" transform="translate(-113.000000, -500.000000)" fill="#939FB4">
            <g id="Icon-empty" transform="translate(113.000000, 500.000000)">
                <g id="empty-doc">
                    <path d="M2.2,3.30715132 L2.2,3.30715132 L2.2,40.6928487 C2.2,41.3075664 2.69187681,41.8 3.30056843,41.8 L25.7503906,41.8 L24.1750381,42.4643359 L33.6246474,32.7705063 L33,34.3061704 L33,3.28941984 C33,2.68944657 32.5097585,2.2 31.9042898,2.2 L3.29571025,2.2 C2.68794974,2.2 2.2,2.69045103 2.2,3.30715132 L2.2,3.30715132 Z M3.29571025,0 L31.9042898,0 C33.7244603,0 35.2,1.47409326 35.2,3.28941984 L35.2,34.3061704 L25.7503906,44 L3.30056843,44 C1.47771482,44 0,42.5234597 0,40.6928487 L0,3.30715132 C0,1.48066208 1.46768546,0 3.29571025,0 Z" id="Rectangle-194"></path>
                    <path d="M24.8,42.7 L24.8,36.0965567 C24.8,34.8858949 25.787178,33.9 26.9965567,33.9 L33.6,33.9 L33.6,31.7 L26.9965567,31.7 C24.5727916,31.7 22.6,33.6702274 22.6,36.0965567 L22.6,42.7 L24.8,42.7 L24.8,42.7 Z" id="Path-331"></path>
                </g>
            </g>
        </g>
    </g>
</svg>