<?xml version="1.0" encoding="UTF-8" standalone="no"?>
<svg width="33px" height="39px" viewBox="0 0 33 39" version="1.1" xmlns="http://www.w3.org/2000/svg" xmlns:xlink="http://www.w3.org/1999/xlink">
    <!-- Generator: Sketch 3.6.1 (26313) - http://www.bohemiancoding.com/sketch -->
    <title>icon-googlescholar</title>
    <desc>Created with Sketch.</desc>
    <defs>
        <path id="path-1" d="M32.8327,38.2271 L0,38.2271 L0,0.0003 L32.8327,0.0003 L32.8327,38.2271 L32.8327,38.2271 Z"></path>
    </defs>
    <g id="Page-1" stroke="none" stroke-width="1" fill="none" fill-rule="evenodd">
        <g id="Styleguide---Icons" transform="translate(-354.000000, -142.000000)">
            <g id="icon-googlescholar" transform="translate(354.000000, 142.000000)">
                <mask id="mask-2" fill="white">
                    <use xlink:href="#path-1"></use>
                </mask>
                <g id="Clip-2"></g>
                <path d="M21.1787,13.6343 C21.0507,14.3123 20.7137,14.9243 20.1667,15.4733 C19.7817,15.8603 19.2907,16.1813 18.6977,16.4413 C18.1017,16.6983 17.4987,16.8273 16.8897,16.8273 C15.8617,16.8273 14.9687,16.5293 14.2147,15.9323 C13.4587,15.3363 12.8317,14.6023 12.3347,13.7323 C11.8357,12.8613 11.4677,11.9263 11.2267,10.9263 C10.9857,9.9263 10.8647,9.0243 10.8647,8.2173 C10.8647,7.5723 10.9377,6.9453 11.0807,6.3323 C11.2267,5.7183 11.5067,5.1553 11.9247,4.6373 C12.3107,4.1543 12.8087,3.7673 13.4187,3.4783 C14.0297,3.1883 14.6557,3.0423 15.2987,3.0423 C16.2937,3.0423 17.1697,3.3403 17.9257,3.9373 C18.6807,4.5333 19.3147,5.2833 19.8297,6.1863 C20.3427,7.0893 20.7287,8.0573 20.9877,9.0883 C21.2427,10.1193 21.3717,11.0713 21.3717,11.9423 C21.3717,12.3933 21.3077,12.9583 21.1787,13.6343 M21.1307,26.3703 C21.8057,26.8843 22.3517,27.3813 22.7697,27.8653 C23.1877,28.3463 23.5007,28.8353 23.7097,29.3343 C23.9167,29.8343 24.0237,30.3863 24.0237,30.9963 C24.0237,32.5073 23.4207,33.7523 22.2157,34.7343 C21.0097,35.7123 19.2517,36.2033 16.9387,36.2033 C14.3347,36.2033 12.2697,35.6563 10.7447,34.5653 C9.2177,33.4713 8.4547,32.0593 8.4547,30.3223 C8.4547,29.4553 8.6227,28.7323 8.9607,28.1543 C9.2977,27.5743 9.6917,27.0933 10.1417,26.7073 C10.5907,26.3223 11.0497,26.0263 11.5157,25.8163 C11.9807,25.6073 12.3427,25.4553 12.5997,25.3593 C13.1127,25.1983 13.6437,25.0613 14.1907,24.9483 C14.7367,24.8363 15.2517,24.7563 15.7337,24.7073 C16.2147,24.6583 16.6327,24.6263 16.9867,24.6123 C17.3397,24.5953 17.5657,24.5863 17.6597,24.5863 L18.2637,24.5863 C18.4077,24.5863 18.5757,24.6033 18.7697,24.6353 C19.6687,25.2773 20.4547,25.8563 21.1307,26.3703 M30.5627,5.6623 L30.5627,2.1053 L32.8327,0.0003 L10.9997,0.0003 L-0.0003,10.8333 L6.6347,10.8333 C6.6597,11.6893 6.8277,12.5393 7.1537,13.3813 C7.5067,14.2963 8.0207,15.1093 8.6957,15.8153 C9.3707,16.5213 10.2057,17.0923 11.2017,17.5253 C12.1987,17.9603 13.3397,18.1763 14.6247,18.1763 C14.8817,18.1763 15.1377,18.1693 15.3947,18.1523 C15.6517,18.1363 15.9087,18.1133 16.1657,18.0803 C16.0387,18.3693 15.9267,18.6513 15.8287,18.9243 C15.7337,19.1973 15.6837,19.5423 15.6837,19.9603 C15.6837,20.6983 15.8367,21.3183 16.1427,21.8153 C16.4477,22.3153 16.7767,22.7873 17.1297,23.2383 C16.5837,23.2703 15.9407,23.3183 15.2027,23.3823 C14.4637,23.4463 13.6767,23.5583 12.8417,23.7193 C12.0047,23.8793 11.1607,24.0973 10.3097,24.3693 C9.4597,24.6443 8.6627,25.0043 7.9247,25.4553 C6.5107,26.2903 5.5387,27.2623 5.0087,28.3713 C4.4787,29.4803 4.2137,30.4673 4.2137,31.3333 C4.2137,32.2353 4.4217,33.0943 4.8397,33.9153 C5.2577,34.7343 5.9007,35.4643 6.7667,36.1073 C7.6357,36.7483 8.7197,37.2643 10.0207,37.6503 C11.3227,38.0343 12.8417,38.2273 14.5767,38.2273 C16.6327,38.2273 18.4547,37.9613 20.0467,37.4313 C21.6377,36.8993 22.9607,36.2063 24.0237,35.3563 C25.0837,34.5023 25.8857,33.5293 26.4327,32.4363 C26.9777,31.3423 27.2527,30.2303 27.2527,29.1043 C27.2527,28.2673 27.1387,27.5283 26.9137,26.8863 C26.6887,26.2413 26.3927,25.6623 26.0237,25.1483 C25.6547,24.6323 25.2197,24.1493 24.7217,23.6993 C24.2227,23.2493 23.7167,22.7983 23.2037,22.3473 L21.4687,20.9963 C21.2107,20.7713 20.9377,20.5053 20.6487,20.1993 C20.3597,19.8953 20.2147,19.4683 20.2147,18.9223 C20.2147,18.3743 20.3597,17.9233 20.6487,17.5693 C20.9377,17.2163 21.2427,16.8783 21.5647,16.5553 C22.0787,16.1703 22.5777,15.7603 23.0597,15.3243 C23.5417,14.8913 23.9747,14.4093 24.3617,13.8783 C24.7447,13.3463 25.0507,12.7433 25.2767,12.0673 C25.4997,11.3913 25.6137,10.6033 25.6137,9.7023 C25.6137,8.8023 25.4847,7.9973 25.2287,7.2893 C25.2057,7.2293 25.1787,7.1783 25.1567,7.1193 L29.6247,2.9753 L29.6247,5.6623 C28.9917,5.8633 28.5317,6.4473 28.5317,7.1453 L28.5317,17.0203 C28.5317,17.8833 29.2307,18.5833 30.0937,18.5833 C30.9567,18.5833 31.6567,17.8833 31.6567,17.0203 L31.6567,7.1453 C31.6567,6.4473 31.1957,5.8633 30.5627,5.6623" id="Fill-1" fill="#3079ED" mask="url(#mask-2)"></path>
            </g>
        </g>
    </g>
</svg>