<?xml version="1.0" encoding="UTF-8" standalone="no"?>
<svg width="16px" height="13px" viewBox="0 0 16 13" version="1.1" xmlns="http://www.w3.org/2000/svg" xmlns:xlink="http://www.w3.org/1999/xlink">
    <!-- Generator: Sketch 3.6.1 (26313) - http://www.bohemiancoding.com/sketch -->
    <title>icon-hidden</title>
    <desc>Created with Sketch.</desc>
    <defs></defs>
    <g id="Page-1" stroke="none" stroke-width="1" fill="none" fill-rule="evenodd">
        <g id="Styleguide---Icons" transform="translate(-843.000000, -515.000000)" fill="#939FB4">
            <g id="icon-hidden" transform="translate(843.000000, 515.000000)">
                <path d="M4.3643,6.3281 C4.3643,6.3251 4.3633,6.3211 4.3633,6.3181 C4.3633,4.3111 5.9923,2.6821 8.0003,2.6821 C8.0033,2.6821 8.0063,2.6831 8.0093,2.6831 L9.6503,1.0421 C9.1143,0.9371 8.5673,0.8641 8.0003,0.8641 C4.3633,0.8641 1.2583,3.1261 0.0003,6.3181 C0.3943,7.3191 0.9873,8.2121 1.7033,8.9891 L4.3643,6.3281 Z" id="Fill-2"></path>
                <path d="M14.21,3.5542 L11.619,6.1452 C11.622,6.2042 11.637,6.2592 11.637,6.3182 C11.637,8.3262 10.008,9.9552 8,9.9552 C7.94,9.9552 7.885,9.9402 7.826,9.9372 L6.203,11.5612 C6.785,11.6852 7.381,11.7732 8,11.7732 C11.637,11.7732 14.742,9.5122 16,6.3182 C15.59,5.2782 14.968,4.3512 14.21,3.5542" id="Fill-4"></path>
                <path d="M13.5216,-0.0002 L11.7796,1.7418 L10.1336,3.3878 L5.0686,8.4538 L3.2146,10.3068 L1.5006,12.0208 L2.2066,12.7288 L4.1046,10.8308 L5.7666,9.1688 L11.7606,3.1748 L12.6716,2.2638 L14.2276,0.7068 L13.5216,-0.0002 Z" id="Fill-1"></path>
            </g>
        </g>
    </g>
</svg>