<?xml version="1.0" encoding="UTF-8" standalone="no"?>
<svg width="60px" height="38px" viewBox="0 0 60 38" version="1.1" xmlns="http://www.w3.org/2000/svg" xmlns:xlink="http://www.w3.org/1999/xlink">
    <!-- Generator: Sketch 40.3 (33839) - http://www.bohemiancoding.com/sketch -->
    <title>icon_inbox</title>
    <desc>Created with Sketch.</desc>
    <defs></defs>
    <g id="Styleguide" stroke="none" stroke-width="1" fill="none" fill-rule="evenodd">
        <g id="Styleguide-03-IconSet" transform="translate(-169.000000, -200.000000)" fill="#000000">
            <g id="icon_inbox" transform="translate(169.000000, 200.000000)">
                <path d="M2,35.0023401 C2,35.5478831 2.45078287,36 2.99593743,36 L57.0040626,36 C57.5560606,36 58,35.5553936 58,35.0023401 L58,2.99765987 C58,2.45211691 57.5492171,2 57.0040626,2 L2.99593743,2 C2.44393939,2 2,2.44460642 2,2.99765987 L2,35.0023401 Z M2.99593743,0 L57.0040626,0 C58.6586731,0 60,1.35244012 60,2.99765987 L60,35.0023401 C60,36.657902 58.6626903,38 57.0040626,38 L2.99593743,38 C1.34132688,38 0,36.6475599 0,35.0023401 L0,2.99765987 C0,1.34209804 1.33730974,0 2.99593743,0 Z" id="Rectangle-157"></path>
                <path d="M40.2280771,18.2176129 L58.4156148,1.99629543 L57.0843852,0.503704566 L31.5700639,23.2597208 C30.7164906,24.0210159 29.2841914,24.0216242 28.4299361,23.2597208 L2.91561485,0.503704566 L1.58438515,1.99629543 L19.7719229,18.2176129 L1.58385756,34.4625088 L2.91614244,35.9541579 L21.2741718,19.5574565 L27.0987064,24.7523117 C28.7117856,26.1910039 31.2894418,26.1899092 32.9012936,24.7523117 L38.7258282,19.5574565 L57.0838576,35.9541579 L58.4161424,34.4625088 L40.2280771,18.2176129 Z" id="Combined-Shape"></path>
            </g>
        </g>
    </g>
</svg>