<?xml version="1.0" encoding="utf-8"?>
<!-- Generator: Adobe Illustrator 19.2.1, SVG Export Plug-In . SVG Version: 6.00 Build 0)  -->
<svg version="1.1" id="Layer_1" xmlns="http://www.w3.org/2000/svg" xmlns:xlink="http://www.w3.org/1999/xlink" x="0px" y="0px"
	 width="70px" height="70px" viewBox="0 0 70 70" enable-background="new 0 0 70 70" xml:space="preserve">
<path fill="#333333" d="M68.6,24.4c-0.8-0.4-1.7-0.1-2,0.7c0,0-0.4,0.8-1.1,1.9l-10.8-7c-0.6-0.4-1.4-0.2-1.7,0.4
	c-0.4,0.6-0.2,1.4,0.4,1.7L64,29c-0.7,0.8-1.4,1.8-2.3,2.7l-15.3-9.5c-0.6-0.4-1.4-0.2-1.7,0.4c-0.4,0.6-0.2,1.4,0.4,1.7l14.7,9.1
	c-4.6,3.8-9.6,4.9-14.8,3.3c-0.2,0-0.3-0.1-0.5-0.1c-0.1-0.1-0.2-0.2-0.3-0.4c-2.1-2.3-3.4-4.9-3.9-7.7l11.1,7
	c0.2,0.1,0.4,0.2,0.7,0.2c0.4,0,0.8-0.2,1.1-0.6c0.4-0.6,0.2-1.4-0.4-1.7l-12.3-7.7c-0.1-0.1-0.2-0.1-0.3-0.1c0-1.7,0.3-3.4,0.9-5.3
	c0.5-1.7,1.1-3.2,1.8-4.5l5.3,3.3c0.2,0.1,0.4,0.2,0.7,0.2c0.4,0,0.8-0.2,1.1-0.6c0.4-0.6,0.2-1.4-0.4-1.7L44,13.6
	c0.7-1.2,1.2-1.9,1.2-1.9c0.5-0.7,0.4-1.6-0.3-2.1c-0.3-0.2-0.6-0.3-0.9-0.3c-0.2-1-1.1-2-2.8-2.8c-2-1-4.7-1.9-8-2.5S26.1,3,22.2,3
	c-4,0-7.7,0.3-11.1,0.9S5,5.3,2.9,6.5S0,8.7,0,9.9s1,2.4,2.9,3.6c1.9,1.1,4.7,1.9,8,2.5c3.4,0.6,7.1,0.9,11.1,0.9
	c4,0,7.7-0.3,11.1-0.9c2.9-0.5,5.4-1.3,7.2-2.1c-0.7,1.4-1.5,3.2-2.1,5.1c-1.6,0.6-3.6,1-6,1.3c-3,0.4-6.4,0.7-10.1,0.7
	c-3.7,0-7-0.2-10.1-0.7c-3-0.4-5.5-1-7.3-1.8c-1.8-0.8-2.6-1.6-2.6-2.5c0-0.3,0.1-0.5,0.3-0.8c-0.6-0.3-1.2-0.6-1.6-0.9
	C0.4,14.8,0,15.4,0,16v8c0,1.2,1.1,2.4,3,3.6c1.9,1.1,4.7,1.9,8.1,2.5c3.4,0.6,7.1,0.9,11.1,0.9c4,0,7.7-0.3,11.1-0.9
	c1.5-0.3,2.9-0.6,4.1-1c0.2,1.3,0.6,2.6,1.1,3.8c-1.6,0.6-3.7,1-6.2,1.4c-3,0.4-6.4,0.7-10.1,0.7c-3.7,0-7-0.2-10.1-0.7
	c-3-0.5-5.5-1-7.3-1.8c-1.8-0.8-2.6-1.6-2.6-2.5c0-0.3,0.1-0.5,0.3-0.8c-0.6-0.3-1.2-0.6-1.6-0.9C0.4,28.9,0,29.5,0,30.1v8
	c0,1.2,1.1,2.4,3,3.6c1.9,1.1,4.7,1.9,8.1,2.5c3.2,0.6,6.8,0.9,10.5,0.9c-1.4,1.5-2.4,2.8-3.2,3.8c-2.2-0.1-4.4-0.3-6.4-0.5
	c-3-0.4-5.5-1-7.3-1.8S2,45,2,44c0-0.3,0.1-0.5,0.3-0.8c-0.6-0.3-1.1-0.6-1.5-0.9C0.3,42.9,0,43.5,0,44.2v8c0,1.2,1,2.4,2.9,3.6
	s4.7,1.9,8,2.5c3.4,0.6,7.1,0.9,11.1,0.9c2.5,0,4.9-0.1,7.2-0.4l-9.8-6.1c0.2-0.1,0.3-0.2,0.4-0.4c0,0,0.9-1.4,2.4-3.2l5.6,3.5
	c0.2,0.1,0.4,0.2,0.7,0.2c0.4,0,0.8-0.2,1.1-0.6c0.4-0.6,0.2-1.4-0.4-1.7l-5.3-3.3c2.1-2.2,4.9-4.6,8.2-6.3l9.8,5.8
	c0.2,0.1,0.4,0.2,0.6,0.2c0.4,0,0.8-0.2,1.1-0.6c0.4-0.6,0.2-1.4-0.4-1.7L35,39.7c2.1-0.6,4.3-0.9,6.7-0.6c0.5,0.2,1,0.5,1.5,0.8
	c3,4.2,3.3,9.2,2.5,13.7L30,44.1c-0.6-0.4-1.4-0.2-1.7,0.4c-0.4,0.6-0.2,1.4,0.4,1.7l16.5,10c-0.3,1.3-0.7,2.5-1.1,3.6l-11.8-7.4
	c-0.6-0.4-1.4-0.2-1.7,0.4c-0.4,0.6-0.2,1.4,0.4,1.7l12.1,7.6c-1,2.1-1.8,3.5-1.8,3.5c-0.4,0.7-0.2,1.7,0.5,2.1
	c0.3,0.2,0.5,0.2,0.8,0.2c0.5,0,1-0.3,1.3-0.7c0.1-0.2,2.9-4.7,4.4-10.8c1.5-6.2,1.1-11.7-1.2-16.2c14.1,2,22.2-13.7,22.3-13.9
	C69.7,25.7,69.4,24.8,68.6,24.4z"/>
</svg>
