<?xml version="1.0" encoding="UTF-8" standalone="no"?>
<svg width="15px" height="10px" viewBox="0 0 15 10" version="1.1" xmlns="http://www.w3.org/2000/svg" xmlns:xlink="http://www.w3.org/1999/xlink">
    <!-- Generator: Sketch 40.3 (33839) - http://www.bohemiancoding.com/sketch -->
    <title>icon_mail</title>
    <desc>Created with Sketch.</desc>
    <defs></defs>
    <g id="Styleguide" stroke="none" stroke-width="1" fill="none" fill-rule="evenodd">
        <g id="Styleguide-03-IconSet" transform="translate(-1101.000000, -426.000000)" fill="#000000">
            <path d="M1114.125,426.251465 L1102.12793,426.251465 C1101.81543,426.251465 1101.54932,426.361327 1101.32959,426.581055 C1101.10986,426.800782 1101,427.064452 1101,427.37207 L1101,434.125 C1101,434.437502 1101.10986,434.703612 1101.32959,434.92334 C1101.54932,435.143068 1101.81543,435.25293 1102.12793,435.25293 L1114.125,435.25293 C1114.4375,435.25293 1114.70361,435.143068 1114.92334,434.92334 C1115.14307,434.703612 1115.25293,434.437502 1115.25293,434.125 L1115.25293,427.37207 C1115.25293,427.064452 1115.14307,426.800782 1114.92334,426.581055 C1114.70361,426.361327 1114.4375,426.251465 1114.125,426.251465 L1114.125,426.251465 Z M1114.125,426.998535 C1114.13477,426.998535 1114.14575,426.999756 1114.15796,427.002197 C1114.17017,427.004639 1114.18115,427.005859 1114.19092,427.005859 L1108.54395,430.770508 C1108.43164,430.84375 1108.29126,430.880371 1108.1228,430.880371 C1107.95434,430.880371 1107.81641,430.84375 1107.70898,430.770508 L1102.06201,427.005859 C1102.07178,427.005859 1102.08154,427.004639 1102.09131,427.002197 C1102.10107,426.999756 1102.11328,426.998535 1102.12793,426.998535 L1114.125,426.998535 Z M1114.125,434.498535 L1102.12793,434.498535 C1102.02051,434.498535 1101.93018,434.461914 1101.85693,434.388672 C1101.78369,434.315429 1101.74707,434.22754 1101.74707,434.125 L1101.74707,427.70166 L1107.2915,431.393066 C1107.40869,431.471192 1107.53931,431.529785 1107.68335,431.568848 C1107.82739,431.60791 1107.9751,431.627441 1108.12646,431.627441 C1108.27295,431.627441 1108.41943,431.60791 1108.56592,431.568848 C1108.7124,431.529785 1108.8418,431.471192 1108.9541,431.393066 L1114.49854,427.70166 L1114.49854,434.125 C1114.49854,434.22754 1114.46191,434.315429 1114.38867,434.388672 C1114.31543,434.461914 1114.22754,434.498535 1114.125,434.498535 L1114.125,434.498535 Z" id="icon_mail"></path>
        </g>
    </g>
</svg>