<?xml version="1.0" encoding="UTF-8" standalone="no"?>
<svg width="35px" height="35px" viewBox="0 0 35 35" version="1.1" xmlns="http://www.w3.org/2000/svg" xmlns:xlink="http://www.w3.org/1999/xlink">
    <!-- Generator: Sketch 3.6.1 (26313) - http://www.bohemiancoding.com/sketch -->
    <title>icon-linkedin</title>
    <desc>Created with Sketch.</desc>
    <defs></defs>
    <g id="Page-1" stroke="none" stroke-width="1" fill="none" fill-rule="evenodd">
        <g id="Styleguide---Icons" transform="translate(-233.000000, -144.000000)">
            <g id="icon-linkedin" transform="translate(233.000000, 144.000000)">
                <rect id="Rectangle-1734" fill="#0277B5" x="0" y="0" width="35" height="35" rx="3"></rect>
                <path d="M5.60982983,14.0517311 L10.3245357,14.0517311 L10.3245357,28.9905947 L5.60982983,28.9905947 L5.60982983,14.0517311 Z M23.2063712,13.9081261 C20.5054152,13.9081261 18.8129735,15.3710619 18.5001898,16.3966252 L18.5001898,14.0517311 L13.2038505,14.0517311 C13.2720465,15.2969643 13.2038505,28.9905947 13.2038505,28.9905947 L18.5001898,28.9905947 L18.5001898,20.906743 C18.5001898,20.4575673 18.4792064,20.0083915 18.6155984,19.6857719 C18.9795291,18.7874204 19.7618162,17.8549709 21.1683592,17.8549709 C23.0076847,17.8549709 23.8437417,19.2365961 23.8437417,21.260182 L23.8437417,28.9905947 L29.1899165,28.9905947 L29.1899165,20.6844502 C29.1899165,16.0569565 26.5571566,13.9081261 23.2063712,13.9081261 Z M7.87997054,7 C6.13900474,7 5,8.11802135 5,9.5934161 C5,11.0412701 6.10687392,12.1828978 7.81308598,12.1828978 L7.84718399,12.1828978 C9.61962488,12.1828978 10.7232201,11.03668 10.7232201,9.58948171 C10.6891221,8.11539843 9.61962488,7 7.87997054,7 Z" id="Linkedin" fill="#FFFFFF"></path>
            </g>
        </g>
    </g>
</svg>