<?xml version="1.0" encoding="UTF-8" standalone="no"?>
<svg width="14px" height="20px" viewBox="0 0 14 20" version="1.1" xmlns="http://www.w3.org/2000/svg" xmlns:xlink="http://www.w3.org/1999/xlink">
    <!-- Generator: Sketch 3.6.1 (26313) - http://www.bohemiancoding.com/sketch -->
    <title>icon-location</title>
    <desc>Created with Sketch.</desc>
    <defs></defs>
    <g id="Page-1" stroke="none" stroke-width="1" fill="none" fill-rule="evenodd">
        <g id="Styleguide---Icons" transform="translate(-483.000000, -272.000000)" fill="#FFFFFF">
            <path d="M490,272 C486.13,272 483,275.13 483,279 C483,284.25 490,292 490,292 C490,292 497,284.25 497,279 C497,275.13 493.87,272 490,272 L490,272 Z M490,281.5 C488.62,281.5 487.5,280.38 487.5,279 C487.5,277.62 488.62,276.5 490,276.5 C491.38,276.5 492.5,277.62 492.5,279 C492.5,280.38 491.38,281.5 490,281.5 L490,281.5 Z" id="icon-location"></path>
        </g>
    </g>
</svg>