<?xml version="1.0" encoding="utf-8"?>
<!-- Generator: Adobe Illustrator 16.0.0, SVG Export Plug-In . SVG Version: 6.00 Build 0)  -->
<!DOCTYPE svg PUBLIC "-//W3C//DTD SVG 1.1//EN" "http://www.w3.org/Graphics/SVG/1.1/DTD/svg11.dtd">
<svg version="1.1" id="Layer_1" xmlns="http://www.w3.org/2000/svg" xmlns:xlink="http://www.w3.org/1999/xlink" x="0px" y="0px"
	 width="16px" height="18px" viewBox="0 0 16 18" enable-background="new 0 0 16 18" xml:space="preserve">
<title>icon-lock</title>
<desc>Created with Sketch.</desc>
<g>
	<path fill="#939FB4" fill-opacity="0.7" d="M13.877,6.429H11.73V4.263c0-0.158-0.016-0.395-0.062-0.686
		c-0.076-0.474-0.215-0.948-0.436-1.4C10.577,0.832,9.35,0,7.549,0C5.748,0,4.521,0.832,3.863,2.179
		C3.643,2.631,3.504,3.106,3.427,3.581C3.38,3.872,3.364,4.108,3.365,4.265c0,0.001,0,0.001,0,0.003v2.161h-2.1
		C0.566,6.429,0,7.003,0,7.711v9.006C0,17.426,0.566,18,1.265,18h12.612c0.698,0,1.264-0.574,1.264-1.283V7.711
		C15.141,7.002,14.574,6.429,13.877,6.429z M5.047,4.263c0-0.004,0-0.004,0-0.003c0-0.068,0.01-0.211,0.041-0.401
		C5.138,3.542,5.23,3.228,5.37,2.942C5.751,2.16,6.408,1.714,7.549,1.714S9.346,2.159,9.727,2.94
		c0.139,0.285,0.23,0.599,0.281,0.915c0.031,0.19,0.04,0.333,0.04,0.402v2.172H5.047V4.263z M13.459,16.285H1.682V8.143h11.777
		V16.285z"/>
	<path fill="#939FB4" fill-opacity="0.7" d="M7.152,12.343c0,0.029-0.002,0.057-0.002,0.086c0,0.946,0.188,1.714,0.421,1.714
		c0.232,0,0.42-0.768,0.42-1.714c0-0.029-0.002-0.057-0.002-0.086c0.488-0.178,0.843-0.641,0.843-1.2
		c0-0.71-0.564-1.285-1.261-1.285c-0.697,0-1.262,0.575-1.262,1.285C6.309,11.702,6.663,12.165,7.152,12.343z"/>
</g>
</svg>
