<?xml version="1.0" encoding="UTF-8" standalone="no"?>
<svg width="20px" height="16px" viewBox="0 0 20 16" version="1.1" xmlns="http://www.w3.org/2000/svg" xmlns:xlink="http://www.w3.org/1999/xlink">
    <!-- Generator: Sketch 3.6.1 (26313) - http://www.bohemiancoding.com/sketch -->
    <title>icon-logout</title>
    <desc>Created with Sketch.</desc>
    <defs></defs>
    <g id="Page-1" stroke="none" stroke-width="1" fill="none" fill-rule="evenodd">
        <g id="Styleguide---Icons" transform="translate(-961.000000, -513.000000)" fill="#939FB4">
            <g id="icon-logout" transform="translate(961.000000, 513.000000)">
                <path d="M10,11.5 L10,13.5 C10,14.3314614 9.33339684,15 8.50038502,15 L2.49961498,15 C1.67158428,15 1,14.3306409 1,13.5081158 L1,2.49188419 C1,1.66537068 1.66614761,1 2.49961498,1 L8.50038502,1 C9.3315419,1 10,1.66680859 10,2.5 L10,4.5 C10,4.77614237 10.2238576,5 10.5,5 C10.7761424,5 11,4.77614237 11,4.5 L11,2.5 C11,1.11397001 9.88327433,-4.86582248e-16 8.50038502,0 L2.49961498,2.1649349e-15 C1.11412393,2.57985022e-15 0,1.11282452 0,2.49188419 L0,13.5081158 C0,14.8836699 1.12004111,16 2.49961498,16 L8.50038502,16 C9.88633163,16 11,14.8830982 11,13.5 L11,11.5 C11,11.2238576 10.7761424,11 10.5,11 C10.2238576,11 10,11.2238576 10,11.5 L10,11.5 Z" id="Path-6162"></path>
                <rect id="Rectangle-2982" x="6" y="7" width="12" height="2"></rect>
                <path d="M14.3492985,13.7532524 L19.3654569,8.70399076 L20.0656137,7.99921333 L19.3654569,7.29443591 L14.4150711,2.31138091 L12.9962142,3.72093576 L17.9465999,8.70399076 L17.9465999,7.29443591 L12.9304416,12.3436976 L14.3492985,13.7532524 L14.3492985,13.7532524 Z" id="Path-81"></path>
            </g>
        </g>
    </g>
</svg>