<?xml version="1.0" encoding="UTF-8" standalone="no"?>
<svg width="119px" height="22px" viewBox="0 0 119 22" version="1.1" xmlns="http://www.w3.org/2000/svg" xmlns:xlink="http://www.w3.org/1999/xlink">
    <!-- Generator: Sketch 40.3 (33839) - http://www.bohemiancoding.com/sketch -->
    <title>icon_piciMember</title>
    <desc>Created with Sketch.</desc>
    <defs></defs>
    <g id="Styleguide" stroke="none" stroke-width="1" fill="none" fill-rule="evenodd">
        <g id="Styleguide-03-IconSet" transform="translate(-663.000000, -1036.000000)" fill="#000000">
            <g id="icon_piciMember" transform="translate(663.000000, 1036.000000)">
                <path d="M7.4943,0.35101 L0,0.35101 L0.6897,2.37006 L0.6897,21.65471 L3.8071,21.65471 L3.8071,14.33916 L7.52785,14.33916 C12.05325,14.33916 15.70635,11.98626 15.70635,7.34481 C15.70635,2.35411 12.32055,0.35101 7.4943,0.35101 M7.4602,12.34871 L3.8071,12.34871 L3.8071,2.37006 L7.4943,2.37006 C10.71235,2.37006 12.4553,4.24721 12.4553,7.34316 C12.4553,10.34011 10.5446,12.34871 7.4602,12.34871" id="Fill-1"></path>
                <polygon id="Fill-3" points="17.83309 0.35101 18.52279 2.37006 18.52279 21.65471 21.64019 21.65471 21.64019 0.35101"></polygon>
                <path d="M43.419915,15.56489 C42.499765,17.33259 40.517015,19.80594 36.564715,19.80594 C31.726365,19.80594 28.933465,16.12699 28.933465,11.00319 C28.933465,5.87884 31.726365,2.19989 36.564715,2.19989 C40.517015,2.19989 42.457415,4.62869 43.377015,6.39639 L44.856515,4.93064 C44.856515,4.93064 42.657615,-0.00011 36.344715,-0.00011 C29.829415,-0.00011 25.498715,5.02139 25.498715,10.99989 C25.498715,16.97784 29.829415,21.99989 36.344715,21.99989 C42.657615,21.99989 44.856515,16.57579 44.856515,16.57579 L43.419915,15.56489 Z" id="Fill-7"></path>
                <polygon id="Fill-5" points="47.086215 0.35101 47.775915 2.37006 47.775915 21.65471 50.893315 21.65471 50.893315 0.35101"></polygon>
                <polygon id="Fill-10" points="59.071815 0.35101 60.011215 0.35101 62.864615 5.58921 62.876715 5.58921 65.670165 0.35101 66.633765 0.35101 66.633765 8.93651 65.887965 8.93651 65.887965 1.66331 65.863765 1.66331 63.153915 6.62431 62.551665 6.62431 59.842365 1.67541 59.806615 1.67541 59.806615 8.93651 59.071815 8.93651"></polygon>
                <polygon id="Fill-12" points="71.14822 0.35101 76.50687 0.35101 76.50687 1.02531 71.90667 1.02531 71.90667 4.15591 75.71212 4.15591 75.71212 4.81866 71.90667 4.81866 71.90667 8.26221 76.53052 8.26221 76.53052 8.93651 71.14822 8.93651"></polygon>
                <polygon id="Fill-14" points="80.756005 0.35101 81.695405 0.35101 84.548805 5.58921 84.560905 5.58921 87.354355 0.35101 88.317955 0.35101 88.317955 8.93651 87.571605 8.93651 87.571605 1.66331 87.547405 1.66331 84.837555 6.62431 84.235855 6.62431 81.526005 1.67541 81.490805 1.67541 81.490805 8.93651 80.756005 8.93651"></polygon>
                <path d="M92.83186,0.339185 L95.99876,0.339185 C97.44361,0.339185 98.39511,1.061335 98.39511,2.446235 C98.39511,3.385635 97.80496,4.216685 96.80616,4.457585 L96.80616,4.469135 C98.00956,4.650085 98.64756,5.541085 98.64756,6.564635 C98.64756,8.189885 97.37101,8.936785 96.05926,8.936785 L92.83186,8.936785 L92.83186,0.339185 Z M95.70946,4.204585 C96.72091,4.204585 97.64821,3.698585 97.64821,2.566685 C97.64821,1.458985 96.84191,0.989285 95.81891,0.989285 L93.59031,0.989285 L93.59031,4.204585 L95.70946,4.204585 Z M95.87831,8.286135 C96.99811,8.286135 97.87701,7.744385 97.87701,6.540435 C97.87701,5.360135 96.97446,4.842585 95.85411,4.842585 L93.59031,4.842585 L93.59031,8.286135 L95.87831,8.286135 Z" id="Fill-16"></path>
                <polygon id="Fill-18" points="102.78928 0.35101 108.14738 0.35101 108.14738 1.02531 103.54773 1.02531 103.54773 4.15591 107.35263 4.15591 107.35263 4.81866 103.54773 4.81866 103.54773 8.26221 108.17158 8.26221 108.17158 8.93651 102.78928 8.93651"></polygon>
                <path d="M112.39712,0.35101 L115.32312,0.35101 C116.97257,0.35101 118.09237,1.27886 118.09237,2.85571 C118.09237,4.08386 117.38177,5.11951 115.86487,5.33621 L118.47792,8.93651 L117.61057,8.93651 L115.05802,5.39616 L113.15557,5.39616 L113.15557,8.93651 L112.39712,8.93651 L112.39712,0.35101 Z M115.09432,4.75816 C116.52707,4.75816 117.33392,4.15591 117.33392,2.84361 C117.33392,1.60336 116.46657,1.00111 115.08222,1.00111 L113.15557,1.00111 L113.15557,4.75816 L115.09432,4.75816 Z" id="Fill-20"></path>
                <path d="M58.867215,18.969885 L58.867215,15.899235 C58.867215,14.141435 60.203715,12.901185 62.069865,12.901185 C63.804015,12.901185 65.068465,13.924735 65.068465,15.393785 L65.068465,15.875035 L64.333665,15.875035 L64.333665,15.513685 C64.333665,14.346035 63.455315,13.587035 62.034115,13.587035 C60.637665,13.587035 59.625665,14.502785 59.625665,15.911335 L59.625665,18.849435 C59.625665,20.246435 60.625565,21.137435 62.094065,21.137435 C63.503165,21.137435 64.333665,20.366335 64.333665,19.198685 L64.333665,18.994085 L65.068465,18.994085 L65.068465,19.330685 C65.068465,20.860235 63.828215,21.811735 62.094065,21.811735 C60.276315,21.811735 58.867215,20.836585 58.867215,18.969885" id="Fill-23"></path>
                <polygon id="Fill-25" points="69.943995 13.06921 75.302645 13.06921 75.302645 13.74351 70.702445 13.74351 70.702445 16.87411 74.507895 16.87411 74.507895 17.53686 70.702445 17.53686 70.702445 20.98041 75.326295 20.98041 75.326295 21.65471 69.943995 21.65471"></polygon>
                <polygon id="Fill-27" points="80.25006 13.06921 81.03271 13.06921 85.69286 20.33031 85.71706 20.33031 85.71706 13.06921 86.43921 13.06921 86.43921 21.65471 85.69286 21.65471 80.98486 14.28581 80.96066 14.28581 80.96066 21.65471 80.25006 21.65471"></polygon>
                <polygon id="Fill-29" points="93.87972 13.73174 90.97792 13.73174 90.97792 13.06954 97.52842 13.06954 97.52842 13.73174 94.63817 13.73174 94.63817 21.65504 93.87972 21.65504"></polygon>
                <polygon id="Fill-31" points="102.06691 13.06921 107.42501 13.06921 107.42501 13.74351 102.82536 13.74351 102.82536 16.87411 106.63081 16.87411 106.63081 17.53686 102.82536 17.53686 102.82536 20.98041 107.44866 20.98041 107.44866 21.65471 102.06691 21.65471"></polygon>
                <path d="M112.372975,13.06921 L115.298425,13.06921 C116.948425,13.06921 118.067675,13.99651 118.067675,15.57391 C118.067675,16.80206 117.357625,17.83771 115.840725,18.05441 L118.453775,21.65471 L117.586425,21.65471 L115.034425,18.11436 L113.131425,18.11436 L113.131425,21.65471 L112.372975,21.65471 L112.372975,13.06921 Z M115.069625,17.47636 C116.503475,17.47636 117.309775,16.87411 117.309775,15.56181 C117.309775,14.32156 116.442425,13.71931 115.058075,13.71931 L113.131425,13.71931 L113.131425,17.47636 L115.069625,17.47636 Z" id="Fill-33"></path>
            </g>
        </g>
    </g>
</svg>