<?xml version="1.0" encoding="UTF-8" standalone="no"?>
<svg width="16px" height="11px" viewBox="0 0 16 11" version="1.1" xmlns="http://www.w3.org/2000/svg" xmlns:xlink="http://www.w3.org/1999/xlink">
    <!-- Generator: Sketch 3.6.1 (26313) - http://www.bohemiancoding.com/sketch -->
    <title>icon-see</title>
    <desc>Created with Sketch.</desc>
    <defs></defs>
    <g id="Page-1" stroke="none" stroke-width="1" fill="none" fill-rule="evenodd">
        <g id="Styleguide---Icons" transform="translate(-962.000000, -397.000000)" fill="#0277BD">
            <path d="M970,397 C966.363636,397 963.258182,399.261818 962,402.454545 C963.258182,405.647273 966.363636,407.909091 970,407.909091 C973.636364,407.909091 976.741818,405.647273 978,402.454545 C976.741818,399.261818 973.636364,397 970,397 L970,397 Z M970,406.090909 C967.992727,406.090909 966.363636,404.461818 966.363636,402.454545 C966.363636,400.447273 967.992727,398.818182 970,398.818182 C972.007273,398.818182 973.636364,400.447273 973.636364,402.454545 C973.636364,404.461818 972.007273,406.090909 970,406.090909 L970,406.090909 Z M970,400.272727 C968.792727,400.272727 967.818182,401.247273 967.818182,402.454545 C967.818182,403.661818 968.792727,404.636364 970,404.636364 C971.207273,404.636364 972.181818,403.661818 972.181818,402.454545 C972.181818,401.247273 971.207273,400.272727 970,400.272727 L970,400.272727 Z" id="icon-see"></path>
        </g>
    </g>
</svg>