<?xml version="1.0" encoding="UTF-8" standalone="no"?>
<svg width="20px" height="20px" viewBox="0 0 20 20" version="1.1" xmlns="http://www.w3.org/2000/svg" xmlns:xlink="http://www.w3.org/1999/xlink">
    <!-- Generator: Sketch 3.6.1 (26313) - http://www.bohemiancoding.com/sketch -->
    <title>icon-settings</title>
    <desc>Created with Sketch.</desc>
    <defs></defs>
    <g id="Page-1" stroke="none" stroke-width="1" fill="none" fill-rule="evenodd">
        <g id="Styleguide---Icons" transform="translate(-362.000000, -512.000000)" fill="#939FB4">
            <path d="M379.159332,522.98 C379.199332,522.66 379.229332,522.34 379.229332,522 C379.229332,521.66 379.199332,521.34 379.159332,521.02 L381.269332,519.37 C381.459332,519.22 381.509332,518.95 381.389332,518.73 L379.389332,515.27 C379.269332,515.05 378.999332,514.97 378.779332,515.05 L376.289332,516.05 C375.769332,515.65 375.209332,515.32 374.599332,515.07 L374.219332,512.42 C374.189332,512.18 373.979332,512 373.729332,512 L369.729332,512 C369.479332,512 369.269332,512.18 369.239332,512.42 L368.859332,515.07 C368.249332,515.32 367.689332,515.66 367.169332,516.05 L364.679332,515.05 C364.449332,514.96 364.189332,515.05 364.069332,515.27 L362.069332,518.73 C361.939332,518.95 361.999332,519.22 362.189332,519.37 L364.299332,521.02 C364.259332,521.34 364.229332,521.67 364.229332,522 C364.229332,522.33 364.259332,522.66 364.299332,522.98 L362.189332,524.63 C361.999332,524.78 361.949332,525.05 362.069332,525.27 L364.069332,528.73 C364.189332,528.95 364.459332,529.03 364.679332,528.95 L367.169332,527.95 C367.689332,528.35 368.249332,528.68 368.859332,528.93 L369.239332,531.58 C369.269332,531.82 369.479332,532 369.729332,532 L373.729332,532 C373.979332,532 374.189332,531.82 374.219332,531.58 L374.599332,528.93 C375.209332,528.68 375.769332,528.34 376.289332,527.95 L378.779332,528.95 C379.009332,529.04 379.269332,528.95 379.389332,528.73 L381.389332,525.27 C381.509332,525.05 381.459332,524.78 381.269332,524.63 L379.159332,522.98 L379.159332,522.98 Z M371.729332,525.5 C369.799332,525.5 368.229332,523.93 368.229332,522 C368.229332,520.07 369.799332,518.5 371.729332,518.5 C373.659332,518.5 375.229332,520.07 375.229332,522 C375.229332,523.93 373.659332,525.5 371.729332,525.5 L371.729332,525.5 Z" id="icon-settings"></path>
        </g>
    </g>
</svg>