<?xml version="1.0" encoding="UTF-8" standalone="no"?>
<svg width="23px" height="23px" viewBox="0 0 23 23" version="1.1" xmlns="http://www.w3.org/2000/svg" xmlns:xlink="http://www.w3.org/1999/xlink">
    <!-- Generator: Sketch 3.6.1 (26313) - http://www.bohemiancoding.com/sketch -->
    <title>icon-success</title>
    <desc>Created with Sketch.</desc>
    <defs>
        <path id="path-1" d="M0,23 L22.2228477,23 L22.2228477,0.629 L0,0.629 L0,23 L0,23 Z"></path>
    </defs>
    <g id="Page-1" stroke="none" stroke-width="1" fill="none" fill-rule="evenodd">
        <g id="Styleguide---Icons" transform="translate(-719.000000, -150.000000)">
            <g id="icon-success" transform="translate(719.000000, 149.000000)">
                <g id="Group-3" transform="translate(0.000000, 0.371100)">
                    <mask id="mask-2" fill="white">
                        <use xlink:href="#path-1"></use>
                    </mask>
                    <g id="Clip-2"></g>
                    <path d="M11.1139073,21.8545 C5.60364238,21.8545 1.13741722,17.3595 1.13741722,11.8125 C1.13741722,6.2655 5.60364238,1.7725 11.1139073,1.7725 C16.6192053,1.7725 21.0864238,6.2655 21.0864238,11.8125 C21.0864238,17.3595 16.6192053,21.8545 11.1139073,21.8545 M11.1139073,0.6285 C4.97483444,0.6285 0,5.6365 0,11.8125 C0,17.9925 4.97483444,23.0005 11.1139073,23.0005 C17.2480132,23.0005 22.2228477,17.9925 22.2228477,11.8125 C22.2228477,5.6365 17.2480132,0.6285 11.1139073,0.6285" id="Fill-1" fill="#00A967" mask="url(#mask-2)"></path>
                </g>
                <path d="M15.4040957,8.00007335 L9.80200024,13.6035976 L6.60161924,10.5175159 L5,12.1134202 L9.80200024,16.8011211 L17,9.60169259 L15.4040957,8.00007335 Z" id="Page-1" fill="#00A967"></path>
            </g>
        </g>
    </g>
</svg>